<svg height="512pt" viewBox="0 0 512 512" width="512pt" xmlns="http://www.w3.org/2000/svg" xmlns:xlink="http://www.w3.org/1999/xlink"><linearGradient id="a" gradientTransform="matrix(1 0 0 -1 0 -9462)" gradientUnits="userSpaceOnUse" x1="0" x2="512" y1="-9718" y2="-9718"><stop offset="0" stop-color="#00f38d"/><stop offset="1" stop-color="#009eff"/></linearGradient><path d="m512 256c0 141.386719-114.613281 256-256 256s-256-114.613281-256-256 114.613281-256 256-256 256 114.613281 256 256zm0 0" fill="url(#a)"/><path d="m350.828125 68.5h-189.65625c-24.117187 0-43.738281 19.59375-43.738281 43.675781v327.746094l138.585937-117.71875 138.546875 117.261719v-327.289063c0-24.082031-19.621094-43.675781-43.738281-43.675781zm-189.65625 30h189.65625c7.574219 0 13.738281 6.136719 13.738281 13.675781v13.796875h-217.132812v-13.796875c0-7.539062 6.164062-13.675781 13.738281-13.675781zm94.808594 184.371094-108.546875 92.207031v-219.105469h217.132812v218.796875zm0 0" fill="#fff"/></svg>