<svg height="512pt" viewBox="0 0 512 512" width="512pt" xmlns="http://www.w3.org/2000/svg" xmlns:xlink="http://www.w3.org/1999/xlink"><linearGradient id="a" gradientTransform="matrix(1 0 0 -1 0 -9462)" gradientUnits="userSpaceOnUse" x1="0" x2="512" y1="-9718" y2="-9718"><stop offset="0" stop-color="#00f38d"/><stop offset="1" stop-color="#009eff"/></linearGradient><path d="m512 256c0 141.386719-114.613281 256-256 256s-256-114.613281-256-256 114.613281-256 256-256 256 114.613281 256 256zm0 0" fill="url(#a)"/><path d="m435.253906 163.304688c-9.898437-20.246094-24.449218-37.402344-43.25-50.984376-33.339844-24.085937-80.367187-36.820312-136.003906-36.820312s-102.664062 12.734375-136.003906 36.820312c-18.800782 13.582032-33.351563 30.738282-43.25 50.984376-10.390625 21.261718-15.660156 46.011718-15.660156 73.566406 0 59.65625 24.632812 105.273437 71.40625 132.683594-6.484376 22.964843-14.9375 36.890624-15.011719 37.015624l-14.203125 22.929688h27.011718.242188c8.640625 0 48.304688-1.871094 80.519531-34.253906 14.25 1.992187 29.332031 2.996094 44.949219 2.996094 55.636719 0 102.664062-12.730469 136.003906-36.820313 18.800782-13.582031 33.351563-30.734375 43.25-50.984375 10.390625-21.257812 15.660156-46.011719 15.660156-73.566406 0-27.554688-5.269531-52.304688-15.660156-73.566406zm-60.820312 173.800781c-28.191406 20.371093-69.144532 31.136719-118.433594 31.136719-16.929688 0-33.085938-1.285157-48.019531-3.820313l-8.351563-1.417969-5.527344 6.417969c-12.273437 14.253906-26.46875 21.773437-38.4375 25.726563 3.128907-8.371094 6.308594-18.472657 8.863282-30.015626l2.546875-11.492187-10.554688-5.207031c-43.421875-21.417969-65.4375-58.953125-65.4375-111.5625 0-44.226563 15.640625-77.949219 46.480469-100.234375 28.195312-20.371094 69.148438-31.136719 118.433594-31.136719 49.289062 0 90.242187 10.765625 118.4375 31.136719 30.839844 22.285156 46.480468 56.007812 46.480468 100.234375 0 44.226562-15.636718 77.949218-46.480468 100.234375zm0 0" fill="#fff"/></svg>