<svg height="512pt" viewBox="0 0 512 512" width="512pt" xmlns="http://www.w3.org/2000/svg" xmlns:xlink="http://www.w3.org/1999/xlink"><linearGradient id="a" gradientTransform="matrix(1 0 0 -1 0 -15158)" gradientUnits="userSpaceOnUse" x1="0" x2="512" y1="-15414" y2="-15414"><stop offset="0" stop-color="#00f38d"/><stop offset="1" stop-color="#009eff"/></linearGradient><path d="m512 256c0 141.386719-114.613281 256-256 256s-256-114.613281-256-256 114.613281-256 256-256 256 114.613281 256 256zm0 0" fill="url(#a)"/><g fill="#fff"><path d="m256 396.195312c-41.449219 0-83.21875-17.175781-124.140625-51.046874-32.734375-27.09375-56.496094-58.085938-66.640625-71.320313-2.160156-2.816406-6.1875-8.75-6.636719-9.414063l-5.699219-8.414062 5.699219-8.414062c.453125-.664063 4.476563-6.59375 6.636719-9.414063 10.144531-13.234375 33.90625-44.226563 66.640625-71.320313 40.921875-33.871093 82.691406-51.046874 124.140625-51.046874 41.453125 0 83.21875 17.175781 124.140625 51.046874 32.738281 27.09375 56.496094 58.085938 66.640625 71.320313 2.164062 2.816406 6.1875 8.746094 6.640625 9.414063l5.699219 8.410156-5.699219 8.414062c-.453125.667969-4.476563 6.597656-6.636719 9.417969-10.144531 13.234375-33.90625 44.226563-66.640625 71.320313-40.925781 33.871093-82.695312 51.046874-124.144531 51.046874zm-166.648438-140.195312c56.160157 73.117188 112.230469 110.195312 166.648438 110.195312s110.488281-37.078124 166.648438-110.195312c-56.160157-73.117188-112.230469-110.195312-166.648438-110.195312s-110.484375 37.078124-166.648438 110.195312zm0 0"/><path d="m287.097656 256c0 17.175781-13.921875 31.097656-31.097656 31.097656s-31.097656-13.921875-31.097656-31.097656 13.921875-31.097656 31.097656-31.097656 31.097656 13.921875 31.097656 31.097656zm0 0"/><path d="m256 345.957031c-49.601562 0-89.957031-40.355469-89.957031-89.957031s40.355469-89.957031 89.957031-89.957031 89.957031 40.355469 89.957031 89.957031-40.355469 89.957031-89.957031 89.957031zm0-149.914062c-33.0625 0-59.957031 26.894531-59.957031 59.957031s26.894531 59.957031 59.957031 59.957031 59.957031-26.894531 59.957031-59.957031-26.894531-59.957031-59.957031-59.957031zm0 0"/></g></svg>