<svg height="512pt" viewBox="0 0 512 512" width="512pt" xmlns="http://www.w3.org/2000/svg" xmlns:xlink="http://www.w3.org/1999/xlink"><linearGradient id="a" gradientTransform="matrix(1 0 0 -1 0 -9462)" gradientUnits="userSpaceOnUse" x1="0" x2="512" y1="-9718" y2="-9718"><stop offset="0" stop-color="#00f38d"/><stop offset="1" stop-color="#009eff"/></linearGradient><path d="m512 256c0 141.386719-114.613281 256-256 256s-256-114.613281-256-256 114.613281-256 256-256 256 114.613281 256 256zm0 0" fill="url(#a)"/><g fill="#fff"><path d="m294.691406 240.359375c0-4.292969-.386718-8.496094-1.089844-12.59375 3.269532.441406 6.59375.6875 9.980469.6875 29.042969 0 56.074219 13.0625 74.164063 35.832031l23.492187-18.660156c-12.863281-16.191406-29.164062-28.640625-47.460937-36.679688 14.910156-13.628906 24.28125-33.222656 24.28125-54.96875 0-41.066406-33.410156-74.476562-74.480469-74.476562-41.066406 0-74.476563 33.410156-74.476563 74.476562 0 4.292969.386719 8.5 1.085938 12.59375-3.265625-.4375-6.589844-.6875-9.976562-.6875-41.066407 0-74.476563 33.410157-74.476563 74.476563 0 21.773437 9.390625 41.390625 24.332031 55.019531-43.835937 19.339844-74.515625 63.210938-74.515625 114.121094h30c0-52.195312 42.464844-94.660156 94.660157-94.660156 41.070312 0 74.480468-33.410156 74.480468-74.480469zm8.890625-130.859375c24.523438 0 44.476563 19.953125 44.476563 44.476562 0 24.527344-19.953125 44.476563-44.476563 44.476563-24.527343 0-44.480469-19.949219-44.480469-44.476563 0-24.523437 19.953126-44.476562 44.480469-44.476562zm-83.367187 175.339844c-24.527344 0-44.480469-19.953125-44.480469-44.480469 0-24.523437 19.953125-44.476563 44.480469-44.476563 24.523437 0 44.476562 19.953126 44.476562 44.476563 0 24.527344-19.953125 44.480469-44.476562 44.480469zm0 0"/><path d="m405.289062 272.5-87.597656 97.53125-48.660156-46.316406-20.683594 21.730468 71.027344 67.609376 108.234375-120.507813zm0 0"/></g></svg>