<svg viewBox="0 0 512 512" xmlns="http://www.w3.org/2000/svg" xmlns:xlink="http://www.w3.org/1999/xlink"><linearGradient id="a" gradientTransform="matrix(1 0 0 -1 0 -13210)" gradientUnits="userSpaceOnUse" x1="0" x2="512" y1="-13466" y2="-13466"><stop offset="0" stop-color="#31d8ff"/><stop offset="1" stop-color="#ff80ff"/></linearGradient><path d="m512 256c0 141.386719-114.613281 256-256 256s-256-114.613281-256-256 114.613281-256 256-256 256 114.613281 256 256zm0 0" fill="url(#a)"/><g fill="#fff"><path d="m310.304688 239.976562c20.199218-16.421874 33.132812-41.453124 33.132812-69.457031 0-49.335937-40.140625-89.476562-89.480469-89.476562-49.335937 0-89.476562 40.140625-89.476562 89.476562 0 28.003907 12.929687 53.035157 33.132812 69.457031-62.734375 23.027344-107.613281 83.363282-107.613281 153.980469 0 3.976563 1.582031 7.792969 4.394531 10.605469s6.628907 4.394531 10.605469 4.394531h297.914062c8.285157 0 15-6.714843 15-15 0-70.617187-44.875-130.953125-107.609374-153.980469zm-115.824219-69.457031c0-32.796875 26.679687-59.476562 59.476562-59.476562s59.480469 26.679687 59.480469 59.476562-26.683594 59.480469-59.480469 59.480469-59.476562-26.683594-59.476562-59.480469zm-73.644531 208.4375c7.480468-66.828125 64.328124-118.957031 133.121093-118.957031s125.644531 52.128906 133.125 118.957031zm0 0"/><path d="m429 155.519531h-11.085938v-11.082031c0-8.285156-6.714843-15-15-15-8.28125 0-15 6.714844-15 15v11.082031h-11.082031c-8.285156 0-15 6.71875-15 15 0 8.285157 6.714844 15 15 15h11.082031v11.085938c0 8.285156 6.71875 15 15 15 8.285157 0 15-6.714844 15-15v-11.085938h11.085938c8.285156 0 15-6.714843 15-15 0-8.28125-6.714844-15-15-15zm0 0"/></g></svg>