<svg height="512pt" viewBox="0 0 512 512" width="512pt" xmlns="http://www.w3.org/2000/svg" xmlns:xlink="http://www.w3.org/1999/xlink"><linearGradient id="a" gradientTransform="matrix(1 0 0 -1 0 -10886)" gradientUnits="userSpaceOnUse" x1="0" x2="512" y1="-11142" y2="-11142"><stop offset="0" stop-color="#00f38d"/><stop offset="1" stop-color="#009eff"/></linearGradient><path d="m512 256c0 141.386719-114.613281 256-256 256s-256-114.613281-256-256 114.613281-256 256-256 256 114.613281 256 256zm0 0" fill="url(#a)"/><g fill="#fff"><path d="m164.242188 221.613281h-41.355469c-18.960938 0-34.386719 15.425781-34.386719 34.386719v133.113281c0 18.960938 15.425781 34.386719 34.386719 34.386719h41.355469c18.960937 0 34.386718-15.425781 34.386718-34.386719v-133.113281c0-18.960938-15.425781-34.386719-34.386718-34.386719zm4.386718 167.5c0 2.417969-1.96875 4.386719-4.386718 4.386719h-41.355469c-2.417969 0-4.386719-1.96875-4.386719-4.386719v-133.113281c0-2.417969 1.96875-4.386719 4.386719-4.386719h41.355469c2.417968 0 4.386718 1.96875 4.386718 4.386719zm0 0"/><path d="m389.113281 221.613281h-132.46875c-18.957031 0-34.382812 15.425781-34.382812 34.386719v133.113281c0 18.960938 15.425781 34.386719 34.382812 34.386719h132.46875c18.960938 0 34.386719-15.425781 34.386719-34.386719v-133.113281c0-18.960938-15.425781-34.386719-34.386719-34.386719zm4.386719 167.5c0 2.417969-1.96875 4.386719-4.386719 4.386719h-132.46875c-2.417969 0-4.382812-1.96875-4.382812-4.386719v-133.113281c0-2.417969 1.964843-4.386719 4.382812-4.386719h132.46875c2.417969 0 4.386719 1.96875 4.386719 4.386719zm0 0"/><path d="m389.113281 88.5h-266.226562c-18.960938 0-34.386719 15.425781-34.386719 34.386719v41.355469c0 18.960937 15.425781 34.386718 34.386719 34.386718h266.226562c18.960938 0 34.386719-15.425781 34.386719-34.386718v-41.355469c0-18.960938-15.425781-34.386719-34.386719-34.386719zm4.386719 75.742188c0 2.417968-1.96875 4.386718-4.386719 4.386718h-266.226562c-2.417969 0-4.386719-1.96875-4.386719-4.386718v-41.355469c0-2.417969 1.96875-4.386719 4.386719-4.386719h266.226562c2.417969 0 4.386719 1.96875 4.386719 4.386719zm0 0"/></g></svg>