<svg height="512pt" viewBox="0 0 512 512" width="512pt" xmlns="http://www.w3.org/2000/svg" xmlns:xlink="http://www.w3.org/1999/xlink"><linearGradient id="a" gradientTransform="matrix(1 0 0 -1 0 -12310)" gradientUnits="userSpaceOnUse" x1="0" x2="512" y1="-12566" y2="-12566"><stop offset="0" stop-color="#00f38d"/><stop offset="1" stop-color="#009eff"/></linearGradient><path d="m512 256c0 141.386719-114.613281 256-256 256s-256-114.613281-256-256 114.613281-256 256-256 256 114.613281 256 256zm0 0" fill="url(#a)"/><path d="m347.8125 192.980469c-10.128906-16.988281-48.164062-80.816407-56.851562-95.871094-8.28125-14.347656-22.523438-32.332031-50.460938-22.96875-11.183594 3.75-18.78125 10.390625-22.585938 19.734375-3.523437 8.648438-3.601562 18.925781-.246093 32.34375l.199219.792969 17.972656 48.59375c-.871094 5.503906-8.875 8.976562-14.363282 8.976562h-85.019531c-21.453125 0-38.910156 17.453125-38.910156 38.90625 0 6.605469 1.660156 12.828125 4.578125 18.285157-8.332031 7.140624-13.625 17.730468-13.625 29.535156 0 12.042968 5.503906 22.824218 14.121094 29.96875-2.792969 5.351562-4.382813 11.417968-4.382813 17.847656 0 14.101562 7.589844 26.46875 18.925781 33.296875-1.84375 4.441406-2.816406 9.21875-2.816406 14.152344 0 23.136719 16.421875 39.925781 39.046875 39.925781h270.105469v-213.519531zm-194.417969 183.519531c-7.476562 0-9.046875-5.398438-9.046875-9.925781 0-2.65625 1.496094-4.566407 2.746094-5.707031 1.957031-1.773438 4.640625-2.832032 7.179688-2.832032h11.90625v-30h-28.761719c-4.976563 0-9.183594-4.078125-9.183594-8.90625 0-4.832031 4.207031-8.910156 9.183594-8.910156h22.738281v-30h-32.746094c-4.832031 0-8.910156-4.082031-8.910156-8.910156s4.078125-8.910156 8.910156-8.910156h28.40625v-30h-19.363281c-4.828125 0-8.90625-4.078126-8.90625-8.90625 0-4.832032 4.078125-8.910157 8.90625-8.910157h85.023437c20.648438 0 43.5-14.75 44.414063-38.574219.128906-3.433593-.460937-6.867187-1.804687-10.503906l-17.5-47.324218c-2.121094-8.851563-1.226563-12.167969-.890626-12.988282.449219-1.101562 2.609376-2.023437 4.339844-2.605468 3.195313-1.070313 5.390625-1.347657 6.523438-.816407 1.007812.46875 3.847656 2.417969 8.417968 10.339844 9.019532 15.625 47.792969 80.679687 57.441407 96.863281v167.527344zm240.105469 0h-41.078125v-153.519531h41.078125zm0 0" fill="#fff"/></svg>