<svg height="512pt" viewBox="0 0 512 512" width="512pt" xmlns="http://www.w3.org/2000/svg" xmlns:xlink="http://www.w3.org/1999/xlink"><linearGradient id="a" gradientTransform="matrix(1 0 0 -1 0 -9462)" gradientUnits="userSpaceOnUse" x1="0" x2="512" y1="-9718" y2="-9718"><stop offset="0" stop-color="#00f38d"/><stop offset="1" stop-color="#009eff"/></linearGradient><path d="m512 256c0 141.386719-114.613281 256-256 256s-256-114.613281-256-256 114.613281-256 256-256 256 114.613281 256 256zm0 0" fill="url(#a)"/><g fill="#fff"><path d="m257.882812 277.40625c2.425782 0 4.835938-.09375 7.21875-.269531 28.664063 1.386719 55.546876 11.5 78.125 29.46875l18.683594-23.472657c-13.863281-11.035156-29.058594-19.640624-45.183594-25.683593 23.144532-17.734375 38.101563-45.648438 38.101563-76.992188 0-53.457031-43.488281-96.945312-96.945313-96.945312-53.457031 0-96.949218 43.488281-96.949218 96.945312 0 31.507813 15.113281 59.546875 38.460937 77.265625-62.859375 23.835938-107.667969 84.671875-107.667969 155.789063h30c0-72.855469 57.351563-132.566407 129.28125-136.351563 2.269532.15625 4.5625.246094 6.875.246094zm-66.949218-96.949219c0-36.914062 30.035156-66.945312 66.949218-66.945312 36.914063 0 66.945313 30.03125 66.945313 66.945312 0 34.707031-26.550781 63.324219-60.40625 66.625-2.042969-.074219-4.09375-.117187-6.148437-.117187-2.210938 0-4.40625.058594-6.59375.140625-34.019532-3.140625-60.746094-31.824219-60.746094-66.648438zm0 0"/><path d="m401.015625 276.070312-87.433594 97.347657-48.558593-46.21875-20.683594 21.726562 70.925781 67.515625 108.066406-120.324218zm0 0"/></g></svg>